<svg width="689" height="346" viewBox="0 0 689 346" fill="none" xmlns="http://www.w3.org/2000/svg">
<g filter="url(#filter0_d_202_56)">
<path d="M336.163 225.983L339.085 217.912L332.823 217.495L336.163 225.983ZM258.094 82.9268L263.243 103.94L271.314 188.271L277.298 184.931L280.917 176.999L285.787 100.183L288.988 81.2568L316.263 84.7358L322.665 148.889L319.464 154.594L322.665 160.161L323.082 177.973L333.937 192.028L342.008 107.697L342.425 83.7617L366.5 84.3184L374.154 87.1016L361.49 202.326L353.28 201.074L346.461 197.873L332.267 202.187L306.104 194.116L288.57 203.857L263.104 202.187L254.198 214.711L242.091 201.213L229.566 82.6484L258.094 82.9268ZM359.82 217.495L357.176 253.398L353.28 276.22L352.445 294.45L346.739 315.463L321.134 317.412L317.933 309.897L308.192 225.705L304.991 214.433L299.007 222.504L295.389 233.22L287.318 317.133L279.386 319.221L257.955 317.412L250.44 274.272L249.605 255.207L244.039 216.521L256.703 222.087L276.603 212.624L293.858 211.928L331.571 206.64L334.493 212.902L346.183 207.614L352.445 217.495H359.82ZM449.579 81.396L457.511 87.1016L475.184 207.893L469.061 206.501L455.841 213.32L450.274 207.614L446.378 202.465L439.42 166.284L436.776 169.763L430.375 201.213L419.938 202.883L412.701 211.928L399.759 204.414L416.041 84.1792L449.579 81.396ZM478.941 224.592L484.508 261.608L491.048 310.732L487.569 316.298L455.841 317.133L449.161 280.812L427.591 277.612L426.617 290.693C424.205 300.712 422.999 309.155 422.999 316.02L393.219 317.551L385.426 313.793L397.811 219.582L407.831 222.504L418.685 215.546L430.792 213.459L430.096 231.828L428.705 241.291L440.255 243.1L449.857 241.291L447.909 220.278L456.119 222.504L468.087 213.181L474.627 219.582L478.941 224.592ZM540.729 188.132L531.961 197.595L520.829 202.604L515.123 195.507L506.913 196.064L503.99 194.116L502.599 101.992L504.547 83.0659L529.039 83.3442L540.868 81.5352L540.729 188.132ZM540.45 222.365L539.754 256.32L540.311 273.715L552.14 273.298L584.146 273.854L586.791 284.431L586.234 310.732L584.564 319.917L558.958 318.107L549.356 316.298H525.421L513.592 317.133L502.459 314.768L502.32 290.971L504.547 258.269V210.676L511.227 210.954L520.968 215.268L526.952 208.032L532.657 209.562L540.729 199.96L540.45 222.365ZM636.471 188.132L627.704 197.595L616.571 202.604L610.865 195.507L602.655 196.064L599.732 194.116L598.341 101.992L600.289 83.0659L624.781 83.3442L636.61 81.5352L636.471 188.132ZM636.192 222.365L635.497 256.32L636.053 273.715L647.882 273.298L679.889 273.854L682.533 284.431L681.976 310.732L680.306 319.917L654.701 318.107L645.099 316.298H621.163L609.334 317.133L598.202 314.768L598.062 290.971L600.289 258.269V210.676L606.969 210.954L616.71 215.268L622.694 208.032L628.399 209.562L636.471 199.96L636.192 222.365Z" fill="#3B82F6"/>
</g>
<g filter="url(#filter1_d_202_56)">
<rect x="44.4007" y="97.8543" width="70.1986" height="80.1458" rx="6" fill="#D85114"/>
<rect x="52.6383" y="107.259" width="53.7234" height="61.336" rx="6" fill="white"/>
<ellipse cx="91.6773" cy="127.704" rx="5.37234" ry="6.1336" fill="#D85114"/>
<ellipse cx="68.3971" cy="127.704" rx="5.37234" ry="6.1336" fill="#D85114"/>
<rect x="89.8865" y="154.283" width="10.7447" height="6.1336" rx="3.0668" fill="#D85114"/>
<rect x="75.5603" y="154.283" width="10.7447" height="6.1336" rx="3.0668" fill="#D85114"/>
<rect x="61.2341" y="154.283" width="10.7447" height="6.1336" rx="3.0668" fill="#D85114"/>
<rect x="73.4113" y="77" width="12.5355" height="23.7166" rx="6.26773" fill="#D85114"/>
<path d="M119.255 117.482H126C128.209 117.482 130 119.273 130 121.482V142.105C130 144.314 128.209 146.105 126 146.105H119.255V117.482Z" fill="#D85114"/>
<path d="M39.7447 117.482H33C30.7909 117.482 29 119.273 29 121.482V142.105C29 144.314 30.7909 146.105 33 146.105H39.7447V117.482Z" fill="#D85114"/>
</g>
<g filter="url(#filter2_d_202_56)">
<path d="M3.21289 196.791L22.9688 198.637L24.7461 201.371L30.8984 240.131C31.2174 241.999 31.8099 243.845 32.6758 245.668C34.7266 243.207 36.5039 240.45 38.0078 237.396L43.2715 204.174L45.0488 198.637L66.1719 200.209L67.0605 206.908L66.1719 208.754L65.2832 232.748L65.4199 253.461L60.8398 250.658L58.7207 247.309L50.4492 248.607L47.8516 249.838L47.3047 254.623L53.1836 251.41L60.293 257.768L66.0352 264.262L67.0605 281.078L66.1719 310.268L61.7969 313.07L50.3125 312.113L49.4238 304.73V282.582L51.2012 274.311L49.4238 265.082L45.0488 259.545L41.4941 261.391L45.0488 264.125C44.5931 269.685 43.7044 275.837 42.3828 282.582L40.6055 302.885L39.1016 309.789L31.7871 312.113L27.4121 293.656L25.6348 273.354L24.3359 265.971L30.2148 261.186L37.1191 259.545L41.6309 252.025L30.6934 254.281L18.7988 261.527L14.834 258.588L10.7324 253.871L4.23828 251.752L3.62305 239.242V217.094L2.73438 214.291V202.328L3.21289 196.791ZM19.0723 263.988L20.3711 269.662L18.5938 272.465L19.4824 278.891V294.613H20.3711V297.348L19.4824 300.15V302.885H20.3711L19.4824 311.225L3.14453 312.797L2.73438 301.996V279.848L3.62305 261.391L10.8691 262.006L19.0723 263.988ZM91.8066 214.77L90.9863 251.137L89.0039 258.656L80.6641 255.58L78.8867 260.092L84.2188 261.732L90.9863 264.057L91.1914 276.02L91.0547 293.451L90.7129 312.387L72.9395 314.301L72.5977 280.053L73.623 260.775L78.3398 256.264L80.3223 253.461L77.5879 250.59L73.0078 251.752L73.7598 233.842L73.2129 208.275L74.8535 197.338L91.7383 197.816L91.8066 214.77ZM147.178 311.225L131.523 313.754L128.857 311.908L127.148 309.584L124.482 295.707C124.072 291.697 122.34 284.473 119.287 274.037L114.707 265.424L114.092 273.08L115.049 276.566L113.818 279.643L114.639 282.445L114.775 312.797L98.3691 312.387V299.877L98.4375 257.768L102.129 251.889L112.998 250.316L125.576 257.904L119.766 248.676L104.385 244.779L98.7793 246.215L98.9844 236.439L97.3438 203.695L98.2324 197.68L112.998 197.064L118.398 207.387L124.551 233.09L129.404 246.352L129.131 236.098L128.857 225.912L129.199 199.389L133.984 198.432L146.221 197.953L146.289 201.85L147.178 235.141L146.904 249.77L139.385 252.982L127.695 252.504L131.25 254.623L140.957 256.742L146.699 252.504L146.494 255.375L146.699 282.787L146.289 301.723L147.178 311.225ZM158.936 259.34C164.085 257.882 167.344 258.474 168.711 261.117C170.944 261.983 172.448 263.852 173.223 266.723L172.949 276.156L173.359 278.959L172.949 279.848L173.359 290.102L174.727 291.469C175.957 290.512 177.142 289.258 178.281 287.709C179.375 285.43 180.127 282.673 180.537 279.438L181.426 269.594L179.785 260.16L183.545 259.271L187.373 253.666C190.244 254.532 192.318 256.059 193.594 258.246C195.964 258.428 198.493 259.044 201.182 260.092L201.934 268.705L200.635 288.666L198.311 297.074C197.764 299.398 196.693 303.021 195.098 307.943L186.074 313.207L179.512 315.121L155.107 313.412C154.242 310.678 153.786 307.556 153.74 304.047V295.707C153.968 295.251 154.128 294.613 154.219 293.793L153.74 285.043L154.219 281.283L153.74 280.326L152.715 261.596L158.936 259.34ZM201.797 251.615L196.328 251L193.047 248.676C189.993 248.22 187.669 248.904 186.074 250.727L181.357 252.572L181.426 239.242L181.836 237.875V230.424L180.127 225.297L177.393 221.059L174.248 219.691L172.949 220.58L173.633 248.061L173.223 249.906L173.633 254.555L169.189 255.99L161.875 256.605L157.021 252.367L153.945 255.648L153.535 250.863L154.014 246.625L153.74 224.34L154.219 217.777V201.439L155.859 197.338L162.285 197.543L170.693 198.227L176.025 197.748C177.939 197.794 180.036 198.09 182.314 198.637L191.201 203.354L194.824 206.635L197.969 210.805L199.268 216.41C199.632 218.233 199.928 220.261 200.156 222.494L202.412 234.594L201.797 251.615Z" fill="black"/>
</g>
<defs>
<filter id="filter0_d_202_56" x="227.566" y="81.2568" width="460.966" height="246.66" filterUnits="userSpaceOnUse" color-interpolation-filters="sRGB">
<feFlood flood-opacity="0" result="BackgroundImageFix"/>
<feColorMatrix in="SourceAlpha" type="matrix" values="0 0 0 0 0 0 0 0 0 0 0 0 0 0 0 0 0 0 127 0" result="hardAlpha"/>
<feOffset dx="2" dy="4"/>
<feGaussianBlur stdDeviation="2"/>
<feComposite in2="hardAlpha" operator="out"/>
<feColorMatrix type="matrix" values="0 0 0 0 0 0 0 0 0 0 0 0 0 0 0 0 0 0 0.2 0"/>
<feBlend mode="normal" in2="BackgroundImageFix" result="effect1_dropShadow_202_56"/>
<feBlend mode="normal" in="SourceGraphic" in2="effect1_dropShadow_202_56" result="shape"/>
</filter>
<filter id="filter1_d_202_56" x="28" y="77" width="109" height="109" filterUnits="userSpaceOnUse" color-interpolation-filters="sRGB">
<feFlood flood-opacity="0" result="BackgroundImageFix"/>
<feColorMatrix in="SourceAlpha" type="matrix" values="0 0 0 0 0 0 0 0 0 0 0 0 0 0 0 0 0 0 127 0" result="hardAlpha"/>
<feOffset dx="3" dy="4"/>
<feGaussianBlur stdDeviation="2"/>
<feComposite in2="hardAlpha" operator="out"/>
<feColorMatrix type="matrix" values="0 0 0 0 0 0 0 0 0 0 0 0 0 0 0 0 0 0 0.4 0"/>
<feBlend mode="normal" in2="BackgroundImageFix" result="effect1_dropShadow_202_56"/>
<feBlend mode="normal" in="SourceGraphic" in2="effect1_dropShadow_202_56" result="shape"/>
</filter>
<filter id="filter2_d_202_56" x="0.734375" y="196.791" width="207.678" height="126.33" filterUnits="userSpaceOnUse" color-interpolation-filters="sRGB">
<feFlood flood-opacity="0" result="BackgroundImageFix"/>
<feColorMatrix in="SourceAlpha" type="matrix" values="0 0 0 0 0 0 0 0 0 0 0 0 0 0 0 0 0 0 127 0" result="hardAlpha"/>
<feOffset dx="2" dy="4"/>
<feGaussianBlur stdDeviation="2"/>
<feComposite in2="hardAlpha" operator="out"/>
<feColorMatrix type="matrix" values="0 0 0 0 0 0 0 0 0 0 0 0 0 0 0 0 0 0 0.29 0"/>
<feBlend mode="normal" in2="BackgroundImageFix" result="effect1_dropShadow_202_56"/>
<feBlend mode="normal" in="SourceGraphic" in2="effect1_dropShadow_202_56" result="shape"/>
</filter>
</defs>
</svg>
